
<svg xmlns:dc="http://purl.org/dc/elements/1.1/" xmlns:cc="http://creativecommons.org/ns#" xmlns:rdf="http://www.w3.org/1999/02/22-rdf-syntax-ns#" xmlns:svg="http://www.w3.org/2000/svg" xmlns="http://www.w3.org/2000/svg" xmlns:sodipodi="http://sodipodi.sourceforge.net/DTD/sodipodi-0.dtd" xmlns:inkscape="http://www.inkscape.org/namespaces/inkscape" viewBox="0 0 80 80" version="1.1" x="0px" y="0px"><path style="" d="m 40,5.2499999 c -3.326534,0 -6.667211,0.597736 -11.10259,1.796264 l 0,9.5928161 -8.839641,0 0,55.11092 39.884462,0 0,-55.11092 -8.839641,0 c 0,0 0.110884,-6.356788 0,-9.5928161 C 46.667211,5.8477359 43.326534,5.2499999 40,5.2499999 z m 0,4.547988 c 2.217689,0 4.429721,0.3509981 6.64741,1.0701151 l 0,5.770977 -13.29482,0 0,-5.770977 C 35.570279,10.148986 37.782311,9.7979879 40,9.7979879 z M 9.7330679,16.63908 c -3.16399,0.06554 -5.233068,0.582449 -5.233068,4.777299 0.221769,14.921683 0,40.762207 0,45.556322 0,4.794115 2.24739,4.777299 6.6827691,4.777299 l 4.419821,0 0,-55.11092 -4.419821,0 c -0.493858,0 -0.997702,-0.0094 -1.4497011,0 z m 54.6643431,0 0,55.11092 4.41982,0 c 4.056941,0 6.682769,0.01682 6.682769,-4.777299 0,-4.794115 -0.221769,-30.634639 0,-45.556322 0,-4.794115 -2.24739,-4.777299 -6.682769,-4.777299 z" fill="#FFFFFF" fill-opacity="1" stroke="none"></path></svg>